<svg xmlns="http://www.w3.org/2000/svg" width="1680" height="681.21" viewBox="0 0 1680 681.21"><defs><style>.cls-1{fill:#fff;}</style></defs><title>Asset 2</title><g id="Layer_2" data-name="Layer 2"><g id="Layer_1-2" data-name="Layer 1"><g id="IAlVrU.tif"><path class="cls-1" d="M19.93,493.35c2.28-.54,4.18.73,6.2,1.35,6.18,1.9,12.43,3.43,18.94,3.48,2,0,4,.11,5.77-1,2.05-.14,3.69,1,5.49,1.69,3.42,1.33,6.58,3.56,10.5,3.36-5.09,14.74-10.14,29.5-15.29,44.23-8.81,25.2-17.1,50.58-25.24,76-4.91,15.34-9.57,30.76-14.3,46.15-1.91,6.22-5.07,11.2-12,12.62v-2c2.27-.68,2.06-2.91,2.55-4.51,4.9-15.72,9.54-31.51,14.51-47.2,5.27-16.63,10.73-33.2,16.25-49.75,5.94-17.82,12-35.58,18.08-53.37,1.71-5,1.73-5-3.78-5.34-9.67-.62-18.82,1.78-27.93,4.57L14,525.37l-1-.95c9.14-7.1,18.86-13.08,31.4-15.52-9.51-4.08-17.6-8.92-24.44-15.62Z"/><path class="cls-1" d="M1680,219.21c-2.23,3.2-4,6.72-7.45,9a18.74,18.74,0,0,1-26.2-5.85c-5.36-8.7-1.93-21.06,7.17-25.9a18.32,18.32,0,0,1,25.38,8.34c.28.58.28,1.3,1.1,1.44Zm-1.7-6.13c.11-9.31-6.65-16.29-15.78-16.29a16,16,0,0,0-16.3,16,16.36,16.36,0,0,0,15.7,16.2A16.16,16.16,0,0,0,1678.3,213.08Z"/><path class="cls-1" d="M1217.55,318.62q0-55,0-110c0-1,0-2,0-3,.06-4.3.07-4.32,4.44-4.34,4.83,0,9.67,0,14.5,0,3.7,0,3.7.08,3.79,4,0,1,0,2,0,3q0,45.49,0,91c0,1,0,2,0,3,.1,3.71.11,3.79,4,3.79q65.74,0,131.47,0c4,0,4.07-.07,4.07-4.68q0-47.24,0-94.48c0-6.39-.49-5.52,5.63-5.57q6.75-.06,13.5,0c4,0,4,.07,4,4.22,0,.67,0,1.33,0,2q0,111.48,0,223c0,6.56.94,5.84-5.8,5.89-4.83,0-9.67-.08-14.5,0-2.15.05-3-.66-2.88-2.86.14-3,0-6,0-9q0-46.24,0-92.48c0-5.92.63-5.58-5.72-5.58H1244.64c-4.29.07-4.34.07-4.34,4.49q0,49.49,0,99c0,7.41,1,6.31-6.27,6.4-4.5.06-9-.06-13.5,0-2.05,0-3.15-.55-3-2.8.11-1.32,0-2.66,0-4Q1217.55,374.11,1217.55,318.62Z"/><path class="cls-1" d="M1456.08,318.59q0-55,0-110c0-.83,0-1.67,0-2.5,0-5.17-.29-4.84,4.92-4.84h123.47c7.66,0,15.33,0,23,0,3.52,0,3.57.09,3.61,3.59q.08,6.75,0,13.5c0,3.43-.11,3.43-3.73,3.53-1,0-2,0-3,0H1483.87c-5.39,0-4.87-.14-4.87,4.86q0,37.49,0,75c0,.83,0,1.67,0,2.5-.08,1.68.71,2.43,2.37,2.4,1.33,0,2.67,0,4,0h102c1,0,2,0,3,0,3.75.09,3.79.09,3.82,3.92,0,4.33,0,8.66,0,13,0,1.89-.64,2.78-2.6,2.63-1.16-.09-2.33,0-3.5,0q-51.74,0-103.47,0c-6.22,0-5.6-.65-5.61,5.61q0,39.24,0,78.48c0,.83.07,1.67,0,2.5-.21,2.26.5,3.53,3,3.25a31.82,31.82,0,0,1,3.5,0q61.48,0,123,0c6.33,0,5.45-.5,5.5,5.69,0,4-.06,8,0,12,0,1.9-.63,2.78-2.58,2.66-1.16-.07-2.33,0-3.5,0q-73,0-146,0c-6.78,0-5.89.6-5.89-5.81Q1456.05,374.58,1456.08,318.59Z"/><path class="cls-1" d="M612.92,318.8q0-56,0-111.94c0-6.29-.54-5.56,5.64-5.57,28.82,0,57.65.65,86.45-.17,38.87-1.11,65.81,26.53,72.53,57.25s-2.06,57.08-26.06,77.63c-12,10.27-26.64,13.84-42.3,13.77-22.65-.1-45.31,0-68,0-5.94,0-5.38-.51-5.38,5.33q0,37,0,74c0,1,0,2,0,3,0,4.29,0,4.31-4.39,4.33-5.16,0-10.33-.1-15.49,0-2.46.07-3.12-.85-3.08-3.19.11-7.83,0-15.66,0-23.49Q612.92,364.27,612.92,318.8Zm22.92-43.16q0,25,0,49.94c0,3.52.09,3.59,3.56,3.61,7,0,14,0,21,0,17.31,0,34.63.1,51.94-.14A38.79,38.79,0,0,0,739,318.2c18-16.91,23.06-46.43,11.28-69-9.1-17.44-23.29-27.34-43.58-27.29-22.14.06-44.28,0-66.43,0-4.89,0-4.41-.11-4.41,4.77Q635.83,251.17,635.84,275.64Z"/><path class="cls-1" d="M981.9,436.37c-7.62,0-15.06,0-22.51,0-2,0-2.38-1.48-2.95-2.84Q951.73,422.26,947,411q-9.07-21.9-18.11-43.82c-2-4.95-1.78-4.09-6.14-4.09q-48.49,0-97,0c-5,0-4.12-.37-6,4.19-8.9,21.71-17.9,43.38-26.63,65.16-1.29,3.22-2.89,4.18-6.21,4-6.44-.27-12.91-.08-19.93-.08,2.56-6.27,4.83-12,7.19-17.61Q818.55,312.87,862.89,207c2.38-5.69,2.38-5.7,8.53-5.7,2.83,0,5.69.22,8.49-.06,3.17-.31,4.73,1,5.9,3.85,5,12.33,10.19,24.59,15.32,36.87q39.57,94.62,79.13,189.25C980.9,432.69,981.82,434.12,981.9,436.37Zm-60.07-91.85L875.2,229.32c-3.76,6.05-47.38,111.86-47.64,115.19Z"/><path class="cls-1" d="M586.61,436.38c-7.24,0-14.55-.07-21.86,0-2.52,0-2.92-1.75-3.61-3.41q-7.16-17.29-14.3-34.59c-4.39-10.61-8.92-21.16-13.14-31.84-1.12-2.84-2.66-3.6-5.56-3.59q-49,.14-98,0c-2.75,0-4.07.82-5.12,3.43-8.91,22.06-18,44-27,66.06-1.58,3.86-1.57,3.88-5.67,3.9-6.49,0-13,0-19.31,0-1.08-1.46-.11-2.44.3-3.4q47.55-113.75,95.08-227.5c1.38-3.3,3.1-4.59,6.61-4.25a44.35,44.35,0,0,0,9.48,0c3.72-.45,5.23,1.29,6.51,4.46,5.36,13.27,10.94,26.44,16.46,39.64q39,93.24,78,186.48C586,433.14,587.07,434.37,586.61,436.38ZM431.49,344.77h89.43c6,0,6,0,3.74-5.56q-21.4-52.93-42.84-105.84c-.53-1.31-.62-3-2.4-3.87Z"/><path class="cls-1" d="M1005.46,325.84c1.58,29.55,15,59.44,46.11,79.56,31.59,20.45,74.2,14.25,100.26-11.6a67.84,67.84,0,0,0,12.65-17.26c1.11-2.18,2.15-2.44,4.21-1.3,4.66,2.57,9.39,5,14.19,7.34,2.16,1,1.89,2.16,1,3.88a81.22,81.22,0,0,1-26,30.45c-22.2,16-47.1,23.12-74.34,21.11-21.41-1.58-40.35-9.91-56.55-23.89-26.15-22.58-41-51.32-44.13-85.67-3.42-37.8,8.36-70.73,35-97.79,19.81-20.16,44.51-29.8,72.72-30.54,20.09-.53,39.05,3.51,56.37,14.05a86.52,86.52,0,0,1,31.82,33.75c1.8,3.38,1.73,3.45-1.41,5.38q-6.17,3.8-12.38,7.51c-2.93,1.76-3,1.78-4.71-1.42A68.26,68.26,0,0,0,1142,237.21c-12.54-10-27-14.89-42.83-16-18.65-1.3-36.13,2.41-51.86,12.86-15.31,10.18-26,24.19-33.1,41C1008.22,289.18,1005.33,304,1005.46,325.84Z"/><path class="cls-1" d="M223.31,312.12c6.55-1.51,13.14-2.9,20.17-6.92-2,8.73-4.81,15.85-7.45,23a24.94,24.94,0,0,1-6.56-2.27c-9.62-4.91-19.59-9.07-29.27-13.82-14-6.88-28.5-12.77-42.36-20,1.53-5.64,4.49-10.67,6.82-16,8.21-18.69,17-37.11,26-55.45a13.6,13.6,0,0,1,1.1-1.62c3,0,6,.38,8.93-.11,7.64-1.29,15.37-1.61,23-2.63,5.85-.78,11.79-1,17.64-2,2.64-.43,5.26-.45,7.32,1.9,1,1.12,2.55,1.45,3.94,2,7.85,3.12,15.42,6.87,22.93,10.72a5.18,5.18,0,0,1,2.71,2.75c-6.88,18.34-18.14,33-35.57,42.53-2.26,1.24-4.88,1.94-6.65,4l-1.29.23c.16.15.31.41.47.41.45,0,.91-.08.73-.74,6,.31,11.16-2.4,16.42-4.6,3.18-1.33,6.15-3.15,9.22-4.75.81-.42,1.53-1.36,2.59-.48l-.11-.06c-9.13,18.35-21.8,33.28-40.78,42.08-1.54.56-3.3.76-4.85,2.73Z"/><path class="cls-1" d="M263.82,90.16l3-5.62,19.65-27.59c-7.92,8.54-15.37,17.41-21.52,27.26l-4.21,5a5.94,5.94,0,0,1-2.09-2.71c-3.83-7.35-7.62-14.72-11.57-22-2-3.61-3.65-7.4-6.43-10.51,13.53-16.93,27.65-33.31,44.57-47C290.34,2.78,296-.34,302.92,0c3.21.17,5.89,1.44,8.81,2.8C326.09,9.51,334,21.19,338,35.84c4.11,15,3.73,30.28.53,45.48-8,1.29-15.93,2.83-23.95,3.8-9,1.1-18,2.59-27,3.29C279.63,89,271.8,90.48,263.82,90.16Z"/><path class="cls-1" d="M105.6,269.05c6.21-14.56,13.79-28.44,21.2-42.41q14.63-27.57,30.94-54.19c.69-1.13,1.52-2.17,2.28-3.25a3.05,3.05,0,0,1,3.3,1.63c1.6,3.08,3.48,6,5,9.13,5.38,10.8,11,21.47,15.91,32.52a5.51,5.51,0,0,0,2.78,2.73Q178,234.08,168.91,253c-3.94,8.24-7.45,16.7-11.86,24.68-2.08,3.77-2.69,8.07-5.17,11.57a10.17,10.17,0,0,1-5.26-1.14Q126.13,278.51,105.6,269.05Z"/><path class="cls-1" d="M157.86,292.16c13.86,7.21,28.33,13.1,42.36,20,9.67,4.75,19.65,8.91,29.27,13.82a24.94,24.94,0,0,0,6.56,2.27c-2.83,9.6-7.07,18.64-11.19,27.71-2.68,5.89-5.07,12-8.91,17.25a13.17,13.17,0,0,1-6.19-1.66c-14.62-6.73-29.24-13.47-43.78-20.37-6.45-3.06-12.76-6.44-19.39-9.08-2.89-1.15-5.62-2.95-8.9-3Q146.84,315.24,157.86,292.16Z"/><path class="cls-1" d="M137.68,339.12c3.29,0,6,1.81,8.9,3,6.64,2.64,12.94,6,19.39,9.08,14.54,6.9,29.16,13.64,43.78,20.37a13.17,13.17,0,0,0,6.19,1.66c-4.34,9.72-10.39,18.4-16.6,27-4.47,6.14-9.11,12.19-14.87,17.23a11.56,11.56,0,0,1-2.39-.67c-10-5.3-20.5-9.5-30.7-14.36-8.55-4.07-17-8.41-25.77-11.94-2.5-1-5.55-1.62-6.81-4.64.74-3.91,2.6-7.41,4.06-11q6.66-16.53,13.41-33A25.39,25.39,0,0,1,137.68,339.12Z"/><path class="cls-1" d="M118.8,385.76c1.25,3,4.3,3.64,6.81,4.64,8.81,3.53,17.22,7.87,25.77,11.94,10.2,4.86,20.7,9.06,30.7,14.36a11.56,11.56,0,0,0,2.39.67c-4.06,5.15-9.19,9.15-14.31,13.12-16.07,12.47-33.55,22.23-53.43,27.25-1.92.48-4,.29-5.73,1.54a22.62,22.62,0,0,0-2.94.09,136.51,136.51,0,0,1-18,1.83c3.79-11.89,8.48-23.45,12.83-35.14,4.64-12.48,9.53-24.86,14.37-37.26C117.66,387.76,117.72,386.48,118.8,385.76Z"/><path class="cls-1" d="M296.1,176.4a85.35,85.35,0,0,1-14.87,19.83,74,74,0,0,1-15.51,11.41c-1.6.88-3.14,1.86-4.71,2.8-1.74,0-2.9,1.42-4.44,1.93-4.07-2.6-8.76-3.84-13.09-5.9-10.33-4.92-20.71-9.73-31.1-14.51a14.31,14.31,0,0,0-6.17-1.73c7.32-15,15.07-29.76,23.79-44a10.56,10.56,0,0,1,4.37.67c4.08,1.81,8.38,3.18,12.31,5.25C261.5,160,277.22,165.86,292,173.73,293.44,174.49,295.16,174.86,296.1,176.4Z"/><path class="cls-1" d="M263.82,90.16c8,.33,15.81-1.13,23.72-1.74,9.08-.7,18-2.19,27-3.29,8-1,16-2.51,23.95-3.8-2.24,15.24-7.82,29.41-14,43.36a150.2,150.2,0,0,1-9.35,18.58,8.73,8.73,0,0,1-3.82-.88q-17.48-8.28-35-16.49c-5.68-2.67-11.26-5.6-17.09-7.92-3.49-1.39-6.65-3.8-10.62-3.89A217.66,217.66,0,0,1,263.82,90.16Z"/><path class="cls-1" d="M66.56,373.06a332.64,332.64,0,0,1,11-36.5c2.29-6.52,4.3-13.16,7.48-19.34a8.19,8.19,0,0,1,3.82.9c6.75,2.79,13.26,6.1,19.76,9.41,7.24,3.69,14.86,6.48,22.3,9.66-3.34,8.25-6.65,16.52-10,24.75-4,9.77-8.08,19.51-12.13,29.26a9.46,9.46,0,0,1-4.34-.76c-8.39-3.92-16.84-7.71-25.22-11.64C75,376.82,71,374.55,66.56,373.06Z"/><path class="cls-1" d="M90.06,461.2a136.51,136.51,0,0,0,18-1.83,22.62,22.62,0,0,1,2.94-.09c22.69,4.36,43.46-.12,62.2-13.66,2.82-2,5.38-4.42,8.08-6.61.85-.69,1.37-2,2.8-1.72l-.08-.07c-8.61,18.84-21.38,34-39.61,44.15-4.48,2.51-9,4.88-13.48,7.75,4.9,1.28,9.67.25,14.44-.74,5-1,9-4,13.29-6.93-1,7.05-12.58,19.63-22.56,24.79a16.9,16.9,0,0,1-2.79-.93c-14.73-7.88-30.37-13.84-45.17-21.55a11.54,11.54,0,0,0-5.63-1.69A181.23,181.23,0,0,1,90.06,461.2Z"/><path class="cls-1" d="M248.63,114.08c4,.09,7.14,2.5,10.62,3.89,5.83,2.31,11.41,5.24,17.09,7.92q17.5,8.23,35,16.49a8.73,8.73,0,0,0,3.82.88A209.22,209.22,0,0,1,296.1,176.4c-.94-1.54-2.66-1.91-4.1-2.67-14.78-7.87-30.5-13.77-45.31-21.59-3.93-2.08-8.23-3.44-12.31-5.25a10.56,10.56,0,0,0-4.37-.67A330.16,330.16,0,0,1,248.63,114.08Z"/><path class="cls-1" d="M130.93,337.19c-7.45-3.19-15.07-6-22.3-9.66-6.5-3.31-13-6.61-19.76-9.41a8.19,8.19,0,0,0-3.82-.9c2-7.51,5.42-14.51,8.42-21.64,3.77-9,7.47-18,12.14-26.53q20.52,9.49,41,19a10.17,10.17,0,0,0,5.26,1.14q-7.72,17.81-15.44,35.62C134.64,329,132.77,333.07,130.93,337.19Z"/><path class="cls-1" d="M66.84,502.2c-3.92.2-7.07-2-10.5-3.36-1.8-.7-3.44-1.83-5.49-1.69C48.12,475.1,38,456.13,26.1,437.9a19.58,19.58,0,0,1-2.21-4.27,94.25,94.25,0,0,1,27.37,22.85c1.89-17.35,3.39-33.61,7.21-49.5,1.86.87,2.26,2.8,3.06,4.38q9.2,18.21,18.31,36.47a20.43,20.43,0,0,0,4.4,6.53c-3.6,10.08-7.17,20.17-10.82,30.23C71.28,490.48,69,496.33,66.84,502.2Z"/><path class="cls-1" d="M84.23,454.37a20.43,20.43,0,0,1-4.4-6.53q-9.13-18.25-18.31-36.47c-.8-1.59-1.2-3.51-3.06-4.38a257.22,257.22,0,0,1,8.09-33.92c4.41,1.49,8.46,3.76,12.65,5.73,8.38,3.94,16.83,7.72,25.22,11.64a9.46,9.46,0,0,0,4.34.76C104,403.6,99.23,416,94.39,428.4,91,437.06,88.16,445.92,84.23,454.37Z"/><path class="cls-1" d="M246.51,110.4,224.2,146.61c-.17-2.25-2-2.83-3.64-3.61-7.74-3.72-15.38-7.69-23.29-11-3.56-1.49-6.82-4.26-11.1-3.77,4.92-8.26,10.63-16,16.2-23.83,2.76-3.88,4.81-8.3,8.48-11.52.77,1.46,2.26,1.94,3.62,2.49C225.41,99.83,235.52,106.06,246.51,110.4Z"/><path class="cls-1" d="M186.17,128.25c4.27-.49,7.54,2.28,11.1,3.77,7.91,3.3,15.55,7.28,23.29,11,1.62.78,3.47,1.35,3.64,3.61l-17.78,31.73a24.34,24.34,0,0,1-3.28-1.09c-8-4-16-8.19-24.26-11.55-4.45-1.8-8.59-4.31-13.24-5.61C172,149.14,178.87,138.57,186.17,128.25Z"/><path class="cls-1" d="M82.49,482.08a11.54,11.54,0,0,1,5.63,1.69c14.8,7.71,30.45,13.67,45.17,21.55a16.9,16.9,0,0,0,2.79.93c-8.31,5.85-17.82,8.69-27.59,10.79a132.16,132.16,0,0,1-31.24,2.48c-.93,0-1.92-.45-3.16.61,6.56,7.05,11,15.18,12,24.91-1.37.42-1.56-.57-1.93-1.17C80,537,76,530.13,68.8,525.88c-1.88-1.12-1-2.62-.51-3.94,2.88-8.49,5.76-17,8.79-25.43C78.81,491.67,80.21,486.71,82.49,482.08Z"/><path class="cls-1" d="M206.22,190.22a14.31,14.31,0,0,1,6.17,1.73c10.39,4.78,20.77,9.6,31.1,14.51,4.32,2.06,9,3.3,13.09,5.9,1.61.54,3.08-.09,4.55-.6a84.27,84.27,0,0,0,26.82-9.64c1.4,1.18.4,2.29.16,3.24a114.2,114.2,0,0,1-9.82,26.37,5.18,5.18,0,0,0-2.71-2.75c-7.52-3.85-15.08-7.59-22.93-10.72-1.39-.55-3-.88-3.94-2-2.06-2.35-4.68-2.34-7.32-1.9-5.86,1-11.79,1.23-17.64,2-7.66,1-15.4,1.34-23,2.63-2.9.49-6,.1-8.93.11A274.68,274.68,0,0,1,206.22,190.22Z"/><path class="cls-1" d="M246.51,110.4c-11-4.34-21.1-10.57-32-15-1.36-.55-2.85-1-3.62-2.49,6.91-10.5,14.81-20.27,22.54-30.16,2.33-3,4.83-5.85,7.26-8.77,2.78,3.11,4.48,6.9,6.43,10.5,3.95,7.28,7.74,14.65,11.57,22a5.94,5.94,0,0,0,2.09,2.71Z"/><path class="cls-1" d="M165.63,160.08c4.65,1.3,8.8,3.81,13.24,5.61,8.31,3.36,16.23,7.59,24.26,11.55a24.34,24.34,0,0,0,3.28,1.09c-6.48,12.28-12.52,24.8-19.4,36.88a5.51,5.51,0,0,1-2.78-2.73c-4.87-11.05-10.53-21.72-15.91-32.52-1.55-3.11-3.42-6-5-9.13a3.05,3.05,0,0,0-3.3-1.63C161.08,165.67,163.49,163,165.63,160.08Z"/><path class="cls-1" d="M664.4,494.45c-2.29,4.42-3.19,8.3-4.42,12-2.76,8.38-5.49,16.77-8.08,25.21-.75,2.45-2,3.49-4.61,3.37-2.48-.11-2.91-1.66-3.51-3.46-3.67-11.05-7.42-22.08-11.09-33.14-1.4-4.23-3.3-8.31-4.06-12.76,5.69-.95,5.7-.95,7.23,3.85q5,15.7,10,31.41c.49,1.54,1.08,3.06,1.72,4.86,1.86-1,1.91-2.59,2.31-3.88,3.46-11,6.83-21.93,10.33-32.88.51-1.58.47-3.69,3.12-3.89,3.16-.24,3.85,0,4.94,3.35,3.61,11.25,7.16,22.53,10.74,33.79.4,1.26.87,2.5,1.31,3.75,1.81-.47,1.67-2,2-3.21q5.29-16.66,10.5-33.34c1.43-4.58,1.4-4.59,6.59-3.92.6.81.08,1.56-.16,2.3q-7.24,21.81-14.52,43.61c-.56,1.68-.85,3.52-3.44,3.54-3.27,0-3.75-.08-4.88-3.56-3.47-10.77-6.9-21.56-10.36-32.34C665.69,497.89,665.2,496.66,664.4,494.45Z"/><path class="cls-1" d="M1219,523.43c.1-2.16.24-3.74.24-5.31,0-9.82,0-19.65,0-29.47,0-3.19.55-3.58,3.33-3.49,1.6,0,2.51.58,2.47,2.31s0,3.66,0,5.49c0,12.49,0,25,0,37.46,0,1.5.93,3.47-1.18,4.41a5.48,5.48,0,0,1-6.15-1.92c-4.72-6.24-9.37-12.53-14.05-18.8q-5.82-7.8-11.66-15.59a1.74,1.74,0,0,0-1.92-.95c-.64,1.18-.34,2.67-.34,4.07,0,10,0,20,0,30,0,1.7.15,3.36-2.41,3.42-2.9.06-3.51-.26-3.55-3.27-.08-5.66,0-11.32,0-17,0-8.49,0-17,0-25.47,0-1.37-.73-3.12,1-4,1.6-.81,5,.14,6.3,1.67.54.63,1,1.33,1.49,2q11,14.81,22.11,29.6C1215.8,520.09,1216.73,521.87,1219,523.43Z"/><path class="cls-1" d="M1610,523.57c0-11,0-21.16,0-31.29,0-1.5.08-3,0-4.49-.11-2,.81-2.63,2.67-2.64s3.25.28,3.18,2.66c-.1,3.16,0,6.33,0,9.49,0,11.32,0,22.64,0,34,0,1.24.57,3-1.12,3.45-1.87.5-4,.91-5.63-.76a26.61,26.61,0,0,1-2.12-2.77q-11.65-15.61-23.32-31.2c-.85-1.13-1.36-2.66-3.54-3.38,0,1.45,0,2.69,0,3.94,0,10.32-.07,20.65,0,31,0,3.35-.66,3.59-3.84,3.46a1.8,1.8,0,0,1-2-1.78c-.06-.83-.05-1.66-.05-2.5,0-13.65,0-27.31,0-41,0-1.51-.86-3.47,1.23-4.41s4.92.08,6.5,2.16c3.72,4.91,7.39,9.85,11.07,14.79q6.57,8.8,13.14,17.61A10.58,10.58,0,0,0,1610,523.57Z"/><path class="cls-1" d="M1259,509.9c0-7.17.06-14.33,0-21.5,0-2.29.64-3.32,3.11-3.27,6.5.15,13-.16,19.49.19,12.55.68,22.21,10.63,23.1,23.39.83,11.95-7.52,22.86-19.5,25.53-5.77,1.29-11.62.68-17.44.74-8.74.09-8.74,0-8.74-8.59Q1259,518.15,1259,509.9Zm5.84,0c0,5.49.06,11,0,16.47,0,2.1.69,3,2.87,2.95,4-.11,8,0,12-.06,11-.28,19-8.27,19.2-18.92.18-10.26-7.69-18.68-18.29-19.35-4.14-.26-8.32,0-12.47-.17-2.79-.13-3.33,1.23-3.28,3.61C1264.86,499.61,1264.79,504.77,1264.8,509.93Z"/><path class="cls-1" d="M822.14,518.36l10.71,16c-5.75,1.06-5.76,1.06-8.43-3-2-3.07-4.1-6.07-5.94-9.23-1.22-2.09-2.66-3.1-5.19-2.9-3,.24-6,0-9,.08-4.17.06-4.19.08-4.26,4.08-.05,3-.06,6,0,9,0,1.88-.7,2.7-2.63,2.69s-3.25-.27-3.22-2.65c.07-6,0-12,0-18,0-8.49,0-17,0-25.47,0-3.63.11-3.72,3.55-3.75,5.82,0,11.65,0,17.47.08a18.28,18.28,0,0,1,3,.25c8.31,1.45,13.07,5.78,14.36,13.15,1,5.95-.36,14.38-8.63,18.52C823.53,517.4,823.14,517.71,822.14,518.36ZM800,502.17h0c0,2.83.08,5.66,0,8.49-.08,2.16.87,3,3,2.91,4.49-.12,9,.11,13.47-.25,7-.55,10.66-4.7,10.66-11.37,0-6.36-3.62-10.22-10.57-10.81-4.14-.35-8.31-.26-12.47-.25-4,0-4,.09-4,4.29C800,497.5,800,499.84,800,502.17Z"/><path class="cls-1" d="M1518.06,485.12c14.56-.08,26,10.66,26.11,24.54.13,14.3-11.1,25.44-25.71,25.52-14.41.08-26.32-11.32-26.29-25.15S1503.6,485.2,1518.06,485.12Zm20.18,24.8c0-10.85-8.83-19.36-20-19.31-11,0-20.06,8.77-20.14,19.4-.08,10.79,9.12,19.54,20.46,19.48S1538.26,521,1538.23,509.92Z"/><path class="cls-1" d="M454.57,485.14c14.36,0,26.05,11.29,25.85,24.89-.21,14.25-11.65,25.23-26.2,25.14s-26.11-11.57-25.9-25.51S440,485.11,454.57,485.14Zm19.76,24.8c.25-10.14-8.08-19.24-20-19.38-11-.12-20.11,8.95-20.2,19.42-.08,10.76,9.18,19.57,20.49,19.5S474.4,520.93,474.33,509.94Z"/><path class="cls-1" d="M1053.77,485.14c14.45,0,26,10.82,26.12,24.63s-11.59,25.43-26,25.4c-14.67,0-26.06-11.08-26-25.26C1027.94,495.95,1039.17,485.19,1053.77,485.14Zm.41,44.32A19.56,19.56,0,0,0,1074,510c0-10.49-9.12-19.43-19.94-19.51a19.92,19.92,0,0,0-20.21,19.69C1033.81,521.13,1042.7,529.55,1054.18,529.46Z"/><path class="cls-1" d="M864.21,509.72c0-6.83,0-13.67,0-20.5,0-3.94.08-4,3.78-4,8.83,0,17.66,0,26.5,0,1.83,0,3.78-.3,3.64,2.65-.13,2.7-.26,3-3.8,3-6.67.06-13.33,0-20,0-4.14,0-4.16.08-4.22,4.12,0,2.83.12,5.67,0,8.5s1.08,3.45,3.59,3.4c6.16-.11,12.33,0,18.5-.06,2.05,0,3,.53,3,2.81s-.75,2.94-2.9,2.91c-6-.09-12-.06-18,0-4.06,0-4.07.09-4.15,4.25,0,2.17,0,4.33,0,6.5.07,6.54-.81,6,5.77,6s13.33,0,20,0c1.89,0,3.21.26,3.19,2.66,0,2-.54,3.08-2.8,3.06q-14.5-.1-29,0c-2.47,0-3.13-1-3.1-3.32C864.27,524.39,864.21,517.05,864.21,509.72Z"/><path class="cls-1" d="M716.93,534.5c3.13-6.94,6.06-13.41,9-19.9,3.86-8.64,7.67-17.3,11.58-25.92.71-1.57,1.13-3.47,3.61-3.55s4.27.32,5.42,3.06c3.72,8.88,7.74,17.63,11.67,26.42,2.9,6.49,5.83,13,8.76,19.5-5.35,1.53-5.62,1.43-7.57-2.7a2,2,0,0,1-.21-.45c-1.4-7.46-5.95-9.69-13.2-8.74-4.74.62-9.63.2-14.44.08-2.1-.05-3.43.54-4.16,2.64s-1.68,4-2.57,5.94C722.83,535.21,722.82,535.21,716.93,534.5Zm25.52-41.4h-1.1l-10.43,23.81c4.42,0,7.9,0,11.38,0s6.78-.08,10.72-.13Z"/><path class="cls-1" d="M1375,534.33c-5.25,1.08-5.25,1.08-7.14-2.84a8.7,8.7,0,0,1-.86-1.8c-1.29-6-4.76-8.33-11-7.49a70.45,70.45,0,0,1-14,0c-3.67-.24-6.07.68-7.05,4.46a27.72,27.72,0,0,1-1.77,4.13c-1.91,4.32-1.92,4.31-7.09,3.81-.87-1.26.19-2.18.63-3.17,6.44-14.44,12.95-28.86,19.36-43.32.9-2,2-3.09,4.39-3.09s3.51,1.12,4.4,3.14c5,11.28,10,22.5,15,33.78C1371.69,526.06,1374,529.94,1375,534.33Zm-13.67-17.7-11.05-24.79-10.84,24.79Z"/><path class="cls-1" d="M385,485.09a29.17,29.17,0,0,1,13.84,3.15c2,.94,2.25,2.07,1.33,3.95s-1.75,2.66-3.83,1.54a23,23,0,0,0-16.47-2.17c-2.55.58-4.64,2-5.05,4.87a6.38,6.38,0,0,0,3.14,6.81,26.88,26.88,0,0,0,4,1.93c1.54.61,3.15,1.07,4.72,1.62,2.51.88,5.08,1.65,7.5,2.72,5.74,2.53,8.19,6.49,8,12.51-.18,5.31-3.29,9.49-8.81,11.49-9.61,3.49-18.3,1.38-26.38-4.45-2.28-1.64-.95-3.15-.11-4.71,1.23-2.3,2.38-.7,3.54.11,4.64,3.2,9.67,5.21,15.43,4.78a19.29,19.29,0,0,0,3.92-.65c3.26-.95,5.74-2.84,6.09-6.46s-1.75-6-4.93-7.3-6.56-2.38-9.84-3.59a47,47,0,0,1-6.48-2.57c-4.24-2.34-6.7-5.94-6.52-11s2.64-8.46,7.06-10.63A19.59,19.59,0,0,1,385,485.09Z"/><path class="cls-1" d="M1114.81,502.25c0,4.66-.2,9.33,0,14,.34,6.53,3.82,10.9,9.54,12.59,6.79,2,14,0,17.68-4.88,2.42-3.25,2.72-7.1,2.77-10.94.1-7.32,0-14.65,0-22,0-1.16.06-2.33,0-3.49-.1-2.13,1.21-2.36,2.9-2.39s2.9.43,2.87,2.46c-.19,10.31.66,20.65-.45,30.93-1,8.92-6.36,14.47-15.16,16.18a27.14,27.14,0,0,1-12.36-.4c-7.77-2.09-13.19-8-13.53-16-.44-10.13-.18-20.3-.27-30.45,0-1.83.59-2.75,2.57-2.74s3.26.24,3.22,2.63c-.07,4.83,0,9.65,0,14.48Z"/><path class="cls-1" d="M972.34,509.72c0-6.83,0-13.65,0-20.48,0-4,.08-4,3.75-4.05,8.16,0,16.32,0,24.48,0,1.94,0,3.59-.07,3.59,2.74,0,2.6-1.26,3-3.41,3q-9-.1-18,0c-4.37,0-4.39.09-4.44,4.47,0,2.66,0,5.33,0,8,.08,4.46.12,4.54,4.44,4.58,5.16.06,10.32,0,15.49,0,1.82,0,3.25.07,3.27,2.55,0,2.32-.74,3.31-3.16,3.25-5.33-.11-10.66-.09-16,0-3.86.06-4,.18-4,3.92q-.11,7,0,14c0,2.14-.36,3.44-3,3.42s-3.08-1.16-3.06-3.37C972.38,524.37,972.34,517,972.34,509.72Z"/><path class="cls-1" d="M510.21,509.72c0-6.83,0-13.67,0-20.5,0-3.94.08-4,3.78-4,8.33,0,16.67,0,25,0,2,0,3.1.45,3.09,2.76,0,2.13-.75,3-2.9,3-5.67-.07-11.33,0-17,0-1.17,0-2.33,0-3.5,0-1.55,0-2.56.53-2.55,2.28,0,4.17,0,8.33,0,12.5,0,2.1,1.25,2.43,2.94,2.42,5.83,0,11.67.08,17.5,0,2.31,0,2.81,1,2.78,3s-.72,2.7-2.66,2.67c-4.83-.07-9.67,0-14.5,0-6.81,0-6-.37-6.08,6.31,0,3.5,0,7,0,10.5,0,4.25-.17,4.44-2.84,4.47s-3-.26-3.05-4.27C510.18,523.72,510.21,516.72,510.21,509.72Z"/><path class="cls-1" d="M496.33,133.68c0,5.66,0,11.32,0,17,0,1.76.47,3.79-2.54,3.69s-2.39-2.18-2.42-3.9c-.06-3.83-.06-7.66,0-11.49,0-1.85-.67-2.73-2.63-2.72-6.32.05-12.65.08-19,0-2.21,0-2.9.88-2.86,3,.09,4,0,8,0,12,0,1.88-.21,3.25-2.64,3.17-2.18-.07-2.31-1.36-2.31-3q0-17.73,0-35.46c0-1.74.38-2.83,2.46-2.82s2.51,1.05,2.49,2.82c0,4.16.09,8.33,0,12.48-.07,2.37.79,3.24,3.17,3.2,6-.11,12-.13,18,0,2.72.06,3.42-1.15,3.35-3.59-.11-3.83,0-7.66,0-11.48,0-1.66-.23-3.35,2.37-3.45,3-.12,2.61,1.83,2.61,3.64Q496.34,125.19,496.33,133.68Z"/><path class="cls-1" d="M524.21,133.81c0-5.83.06-11.65,0-17.48,0-2.29.67-3.31,3.12-3.27,7.49.1,15,.06,22.47,0,1.56,0,2.52.35,2.54,2.18s-.78,2.66-2.69,2.64q-8.24-.09-16.48,0c-4,0-4,.08-4.11,4.21-.18,9.07-.18,9.07,8.78,9.07h9.49c1.45,0,2.59.21,2.65,2.11s-.91,2.61-2.72,2.6c-5,0-10,.06-15,0-2.27,0-3.31.67-3.25,3.14.34,13.19-2,10.38,10.19,10.7,3.49.09,7,0,10.49,0,1.68,0,3.41-.18,3.36,2.44,0,2.32-1.56,2.17-3.07,2.17-7.49,0-15-.08-22.47.05-2.73,0-3.38-1.14-3.33-3.58C524.29,145.13,524.21,139.47,524.21,133.81Z"/><path class="cls-1" d="M582.2,512.7c0-6.15-.1-12.31,0-18.46.06-2.66-1-3.49-3.51-3.39-3.32.13-6.65,0-10,0-1.87,0-2.67-.73-2.68-2.66s.48-3.09,2.76-3.08q16.46.09,32.93,0c2,0,2.58.82,2.58,2.67s-.44,3.17-2.76,3.09c-3.32-.11-6.65-.08-10,0s-3.54.13-3.55,3.74c0,11.31,0,22.62,0,33.93,0,1.16-.07,2.33,0,3.49.14,2.09-.66,3-2.86,3s-3-.69-3-2.88c.07-6.48,0-13,0-19.46Z"/><path class="cls-1" d="M1407.1,513c0-6.33-.07-12.66,0-19,0-2.37-.79-3.29-3.18-3.19-3.32.13-6.66,0-10,0-2.07,0-3-.68-3-2.88s.9-2.88,3-2.87q16.23.09,32.47,0c1.92,0,2.66.71,2.69,2.62s-.47,3.18-2.75,3.12c-3.16-.08-6.33-.05-9.49,0-3.82.07-3.9.1-3.92,3.89,0,11.32,0,22.64,0,34,0,1.17-.07,2.34,0,3.5.16,2.27-1,2.77-3.05,2.8-2.23,0-2.86-1-2.84-3,.07-6.33,0-12.65,0-19Z"/><path class="cls-1" d="M421,135.94c0-5-.1-10,0-15,.07-2.46-.94-3.22-3.23-3.13-2.65.11-5.32,0-8,0-1.83,0-2.17-1.09-2.17-2.6s.59-2.1,2.08-2.1q13.71,0,27.42,0c1.37,0,2.23.42,2.25,1.95s-.24,2.7-2.07,2.73c-2.49,0-5,0-7.48,0-3.82.08-3.9.1-3.92,3.87,0,8.47,0,16.95,0,25.42,0,1,.06,2,0,3-.14,1.81.81,4.29-2.59,4.15s-2.23-2.71-2.28-4.42C420.94,145.25,421,140.59,421,135.94Z"/><path class="cls-1" d="M1456.21,510.22c0-7.15,0-14.3,0-21.44,0-3.35.66-3.82,3.69-3.62,1.42.1,2.17.62,2.17,2.07,0,.66,0,1.33,0,2,0,14,0,27.93,0,41.89,0,1.5.71,3.48-1.89,3.87-2.91.43-3.94-.29-4-3.32C1456.17,524.51,1456.21,517.37,1456.21,510.22Z"/><path class="cls-1" d="M223.31,312.12l-4.85,1c1.55-2,3.31-2.17,4.85-2.73C223.31,311,223.31,311.54,223.31,312.12Z"/><path class="cls-1" d="M13,524.42l1,.95c-1.06,1-2.39,1.38-4.33,1.6C10.78,525.67,11.58,524.7,13,524.42Z"/><polygon class="cls-1" points="19.92 493.28 19.89 493.14 19.93 493.35 19.92 493.28"/><path class="cls-1" d="M264.2,268.34c-.35-.22-.36-.44,0-.64a.7.7,0,0,1,.14.19c.29.6,0-.25-.23.39Z"/><path class="cls-1" d="M184.08,437.29q-.16-.6.33-.6c0,.1,0,.24,0,.3a1.88,1.88,0,0,1-.39.24Z"/><path class="cls-1" d="M159.83,480.84l-.33.3c-.1-.12-.27-.23-.27-.35s.19-.22.29-.33Z"/><path class="cls-1" d="M1671.31,221.77c-2.52,1.31-3.89.42-5-1.29a32,32,0,0,0-2.65-3.6c-1-1.12-2.46-.93-3.73-.58s-.9,1.57-1,2.5c0,.49,0,1,0,1.49,0,1.38-.56,2.23-2.08,2.1-1.25-.11-1.64-.94-1.64-2,0-5.14,0-10.29,0-15.43,0-1.75,1-2.33,2.52-2.32,2.81,0,5.63-.27,8.43.4,4.7,1.13,7.18,6.45,3.92,9.91-2.76,2.92-1.84,4.62.1,6.9A16.82,16.82,0,0,1,1671.31,221.77Zm-12.42-12.72c0,3.52.15,3.78,2.88,3.86,3.83.1,5.88-1.17,6-3.72.08-2.31-1.69-3.45-5.51-3.53C1659.19,205.59,1658.93,205.86,1658.88,209.05Z"/></g></g></g></svg>
